<svg width="40" height="40" viewBox="0 0 40 40" fill="none" xmlns="http://www.w3.org/2000/svg">
<path d="M30.5805 35.6808C30.3623 36.3289 30.8444 36.9998 31.5282 36.9998H39C39.5523 36.9998 40 36.5521 40 35.9998V13.1019C39.9899 12.1019 38.5907 11.88 38.2717 12.8278L30.5805 35.6808Z" fill="white"/>
<path d="M13.7737 13.1019V35.9998C13.7737 36.5521 14.2214 36.9998 14.7737 36.9998H22.2119C22.8953 36.9998 23.3773 36.3297 23.16 35.6819L15.4966 12.8296C15.1795 11.8841 13.7838 12.1047 13.7737 13.1019Z" fill="white"/>
<path d="M0 31.3839C0 31.7009 0.150231 31.999 0.404936 32.1876L5.30935 35.819C5.96934 36.3076 6.90442 35.8365 6.90442 35.0153V4C6.90442 3.44772 6.4567 3 5.90442 3H1C0.447715 3 0 3.44772 0 4V31.3839Z" fill="white"/>
<path d="M19.9011 3C19.223 3 18.7415 3.66052 18.949 4.30604L25.8811 25.8698C26.1777 26.7927 27.4823 26.7959 27.7836 25.8745L34.8333 4.31074C35.0447 3.66428 34.563 3 33.8828 3H19.9011Z" fill="white"/>
</svg>
