<svg width="59" height="59" viewBox="0 0 59 59" fill="none" xmlns="http://www.w3.org/2000/svg">
<path d="M50 0.5H0.5V17H50V0.5ZM44.5 11.5H6V6H44.5V11.5ZM39 19.75C35.3975 19.75 32.015 20.7675 29.1275 22.5H18.375C17.605 22.5 17 23.105 17 23.875V28H23.215C21.0425 31.1075 19.75 34.875 19.75 39C19.75 40.925 20.0525 42.7675 20.5475 44.5H8.75V19.75H3.25V50H23.215C26.7075 54.9775 32.455 58.25 39 58.25C49.6425 58.25 58.25 49.6425 58.25 39C58.25 28.3575 49.6425 19.75 39 19.75ZM39 52.75C31.41 52.75 25.25 46.59 25.25 39C25.25 31.41 31.41 25.25 39 25.25C46.59 25.25 52.75 31.41 52.75 39C52.75 46.59 46.59 52.75 39 52.75ZM40.375 39.6875L48.24 44.335L46.1775 47.69L36.25 41.75V28H40.375V39.6875Z" fill="white"/>
</svg>
