<svg width="56" height="56" viewBox="0 0 56 56" fill="none" xmlns="http://www.w3.org/2000/svg">
<path d="M35.2051 17.9625C34.0501 18.7325 30.3926 20.8225 29.8426 21.235C28.7701 22.0875 27.7801 22.0325 26.7076 21.2075C26.1576 20.7675 22.5001 18.6775 21.3451 17.935C20.0251 17.0825 20.1076 16.01 21.5651 15.405C26.0751 13.5075 30.5851 13.645 35.0676 15.4875C36.4151 16.065 36.4701 17.1375 35.2051 17.9625ZM55.0601 37.9825C52.5026 32.235 49.0101 27.01 44.5001 22.4175C43.0426 20.905 42.1351 19.2 41.5851 17.2475C41.3101 16.34 41.1176 15.405 40.9251 14.47C40.3751 12.05 40.1276 9.575 39.0001 7.2925C36.9926 2.9475 33.5001 0.6925 28.4401 0.5C23.4626 0.6375 19.7501 2.7275 17.5776 7.1C17.0001 8.2825 16.5876 9.52 16.3126 10.785C15.8451 12.875 15.4326 15.0475 14.9376 17.165C14.5251 18.9525 13.7001 20.4925 12.2976 21.8675C7.87005 26.185 4.32255 31.135 1.62755 36.58C1.24255 37.3775 0.857553 38.175 0.610053 39C0.0875526 40.815 1.40755 42.08 3.33255 41.64C4.54255 41.3925 5.75255 41.145 6.90755 40.7875C8.03505 40.375 8.47505 40.65 8.75005 41.75C10.5376 47.6625 14.4426 51.815 20.4101 54.125C31.7401 58.415 44.9676 52.31 47.8275 41.53C48.0201 40.7875 48.2951 40.5125 49.1201 40.7875C50.3851 41.1725 51.6776 41.4475 52.9701 41.75C54.3176 41.9975 55.3076 41.31 55.5001 39.99C55.5826 39.275 55.3351 38.6425 55.0601 37.9825Z" fill="#32CBED"/>
</svg>
