<svg width="42" height="42" viewBox="0 0 42 42" fill="none" xmlns="http://www.w3.org/2000/svg">
<path d="M10.5 22.75L10.5 19.25L24.5 19.25L18.375 13.125L20.86 10.64L31.22 21L20.86 31.36L18.375 28.875L24.5 22.75L10.5 22.75ZM38.5 21C38.5 25.6413 36.6563 30.0925 33.3744 33.3744C30.0925 36.6563 25.6413 38.5 21 38.5C18.7019 38.5 16.4262 38.0473 14.303 37.1679C12.1798 36.2884 10.2507 34.9994 8.62563 33.3744C7.0006 31.7493 5.71156 29.8202 4.8321 27.697C3.95265 25.5738 3.5 23.2981 3.5 21C3.5 16.3587 5.34374 11.9075 8.62563 8.62562C11.9075 5.34374 16.3587 3.49999 21 3.49999C23.2981 3.49999 25.5738 3.95264 27.697 4.8321C29.8202 5.71156 31.7493 7.0006 33.3744 8.62563C36.6563 11.9075 38.5 16.3587 38.5 21ZM35 21C35 17.287 33.525 13.726 30.8995 11.1005C28.274 8.47499 24.713 6.99999 21 6.99999C17.287 6.99999 13.726 8.47499 11.1005 11.1005C8.47499 13.726 7 17.287 7 21C7 24.713 8.47499 28.274 11.1005 30.8995C13.726 33.525 17.287 35 21 35C24.713 35 28.274 33.525 30.8995 30.8995C33.525 28.274 35 24.713 35 21Z" fill="#7D7D7D"/>
</svg>
