<svg width="42" height="42" viewBox="0 0 42 42" fill="none" xmlns="http://www.w3.org/2000/svg">
<path d="M31.5 19.25V22.75H17.5L23.625 28.875L21.14 31.36L10.78 21L21.14 10.64L23.625 13.125L17.5 19.25H31.5ZM3.5 21C3.5 16.3587 5.34374 11.9075 8.62563 8.62563C11.9075 5.34374 16.3587 3.5 21 3.5C23.2981 3.5 25.5738 3.95265 27.697 4.83211C29.8202 5.71157 31.7493 7.00061 33.3744 8.62563C34.9994 10.2507 36.2884 12.1798 37.1679 14.303C38.0474 16.4262 38.5 18.7019 38.5 21C38.5 25.6413 36.6563 30.0925 33.3744 33.3744C30.0925 36.6563 25.6413 38.5 21 38.5C18.7019 38.5 16.4262 38.0474 14.303 37.1679C12.1798 36.2884 10.2507 34.9994 8.62563 33.3744C5.34374 30.0925 3.5 25.6413 3.5 21ZM7 21C7 24.713 8.475 28.274 11.1005 30.8995C13.726 33.525 17.287 35 21 35C24.713 35 28.274 33.525 30.8995 30.8995C33.525 28.274 35 24.713 35 21C35 17.287 33.525 13.726 30.8995 11.1005C28.274 8.475 24.713 7 21 7C17.287 7 13.726 8.475 11.1005 11.1005C8.475 13.726 7 17.287 7 21Z" fill="#7D7D7D"/>
</svg>
