<svg width="50" height="50" viewBox="0 0 50 50" fill="none" xmlns="http://www.w3.org/2000/svg">
<path fill-rule="evenodd" clip-rule="evenodd" d="M9 13C9 10.7909 10.7909 9 13 9H37C39.2091 9 41 10.7909 41 13V37C41 39.2091 39.2091 41 37 41H13C10.7909 41 9 39.2091 9 37V13ZM13 11C11.8954 11 11 11.8954 11 13V37C11 38.1046 11.8954 39 13 39H37C38.1046 39 39 38.1046 39 37V13C39 11.8954 38.1046 11 37 11H13Z" fill="white" fill-opacity="0.8"/>
<path d="M19.4002 27.8001C19.4002 29.4001 19.4002 30.9001 19.4002 32.5001C19.3002 32.5001 19.2002 32.5001 19.1002 32.5001C18.1002 32.5001 17.1002 32.5001 16.0002 32.5001C15.8002 32.5001 15.7002 32.4001 15.7002 32.2001C15.7002 27.6001 15.7002 22.9001 15.7002 18.3001C15.7002 18.2001 15.7002 18.2001 15.7002 18.1001C15.8002 18.1001 15.8002 18.1001 15.9002 18.1001C20.3002 18.1001 24.8002 18.1001 29.2002 18.1001C30.0002 18.1001 30.7002 18.3001 31.4002 18.7001C32.2002 19.2001 32.7002 20.0001 32.8002 21.0001C33.0002 22.4001 33.0002 23.7001 32.8002 25.1001C32.6002 26.6001 31.7002 27.4001 30.2002 27.7001C30.1002 27.7001 30.0002 27.7001 29.9002 27.8001C31.1002 29.4001 32.2002 30.9001 33.3002 32.5001C33.2002 32.5001 33.1002 32.5001 33.0002 32.5001C31.8002 32.5001 30.7002 32.5001 29.5002 32.5001C29.3002 32.5001 29.2002 32.4001 29.1002 32.3001C28.2002 30.9001 27.2002 29.5001 26.2002 28.1001C26.1002 28.0001 26.0002 27.9001 25.8002 27.9001C23.6002 27.9001 21.5002 27.9001 19.3002 27.9001C19.6002 27.8001 19.5002 27.8001 19.4002 27.8001ZM19.4002 24.6001C19.5002 24.6001 19.6002 24.6001 19.7002 24.6001C22.5002 24.6001 25.2002 24.6001 28.0002 24.6001C28.2002 24.6001 28.4002 24.6001 28.6002 24.6001C29.1002 24.5001 29.4002 24.3001 29.4002 23.8001C29.4002 23.4001 29.4002 23.0001 29.4002 22.6001C29.4002 21.6001 29.2002 21.3001 28.1002 21.3001C25.3002 21.3001 22.5002 21.3001 19.7002 21.3001C19.6002 21.3001 19.5002 21.3001 19.4002 21.3001C19.4002 22.4001 19.4002 23.5001 19.4002 24.6001Z" fill="white" fill-opacity="0.8"/>
<path d="M34.5999 18.4C35.5388 18.4 36.2999 17.6389 36.2999 16.7C36.2999 15.7611 35.5388 15 34.5999 15C33.661 15 32.8999 15.7611 32.8999 16.7C32.8999 17.6389 33.661 18.4 34.5999 18.4Z" fill="white" fill-opacity="0.8"/>
</svg>
