<svg width="50" height="50" viewBox="0 0 50 50" fill="none" xmlns="http://www.w3.org/2000/svg">
<path fill-rule="evenodd" clip-rule="evenodd" d="M9 13C9 10.7909 10.7909 9 13 9H37C39.2091 9 41 10.7909 41 13V37C41 39.2091 39.2091 41 37 41H13C10.7909 41 9 39.2091 9 37V13ZM13 11C11.8954 11 11 11.8954 11 13V37C11 38.1046 11.8954 39 13 39H37C38.1046 39 39 38.1046 39 37V13C39 11.8954 38.1046 11 37 11H13Z" fill="white" fill-opacity="0.8"/>
<path d="M32.7661 17.22C32.4683 16.9656 32.0007 16.9292 31.5172 17.1248C31.0086 17.3304 17.1214 23.3319 16.5561 23.5771C16.4533 23.6131 15.5553 23.9507 15.6478 24.7027C15.7304 25.3807 16.4521 25.6615 16.5402 25.6939L20.0706 26.9119C20.3048 27.6975 21.1682 30.5959 21.3592 31.2151C21.4783 31.6011 21.6724 32.1083 22.0126 32.2127C22.3111 32.3287 22.6081 32.2227 22.8002 32.0707L24.9586 30.0535L28.4429 32.7915L28.5259 32.8415C28.7625 32.9471 28.9892 32.9999 29.2055 32.9999C29.3727 32.9999 29.533 32.9683 29.6863 32.9051C30.2083 32.6891 30.4171 32.1879 30.439 32.1311L33.0416 18.5004C33.2004 17.7724 32.9796 17.402 32.7661 17.22ZM23.1841 27.3991L21.9932 30.5991L20.8022 26.5991L29.9328 19.7991L23.1841 27.3991Z" fill="white" fill-opacity="0.8"/>
</svg>
