<svg width="50" height="50" viewBox="0 0 50 50" fill="none" xmlns="http://www.w3.org/2000/svg">
<path fill-rule="evenodd" clip-rule="evenodd" d="M9 13C9 10.7909 10.7909 9 13 9H37C39.2091 9 41 10.7909 41 13V37C41 39.2091 39.2091 41 37 41H13C10.7909 41 9 39.2091 9 37V13ZM13 11C11.8954 11 11 11.8954 11 13V37C11 38.1046 11.8954 39 13 39H37C38.1046 39 39 38.1046 39 37V13C39 11.8954 38.1046 11 37 11H13Z" fill="white" fill-opacity="0.8"/>
<path d="M34.2256 30.4235C33.4088 28.9867 31.3048 27.2602 30.4362 26.5088C30.1984 26.3031 30.173 25.9472 30.3894 25.7198C32.0471 23.9786 33.373 21.9779 33.8294 20.769C34.0307 20.2349 33.6139 19.6707 33.0266 19.6707H31.3207C30.7584 19.6707 30.4294 19.868 30.2726 20.1821C28.8948 22.9416 27.7131 24.1359 26.8858 24.8339C26.4226 25.2248 25.7003 24.901 25.7003 24.306C25.7003 23.1598 25.7003 21.678 25.7003 20.6273C25.7003 20.1176 25.274 19.7053 24.748 19.7053L21.6318 19.6707C21.2395 19.6707 21.0154 20.1048 21.2509 20.4091L21.7654 21.1311C21.959 21.3812 22.0636 21.6856 22.0636 21.9979L22.0609 25.2492C22.0609 25.8148 21.3595 26.0912 20.9432 25.695C19.5345 24.354 18.3123 21.6158 17.8723 20.3065C17.745 19.9275 17.3818 19.6716 16.97 19.6707L15.2896 19.6667C14.6591 19.6667 14.1982 20.2509 14.3696 20.8392C15.905 26.1072 19.0554 31.1188 24.6699 31.6623C25.2231 31.7156 25.7003 31.2802 25.7003 30.7412V29.0324C25.7003 28.5424 26.0935 28.1212 26.599 28.1088C26.6167 28.1083 26.6344 28.1083 26.6522 28.1083C28.1371 28.1083 29.8003 30.221 30.3822 31.2091C30.5494 31.4934 30.8622 31.6667 31.2003 31.6667H33.4607C34.1203 31.6667 34.5434 30.983 34.2256 30.4235Z" fill="white" fill-opacity="0.8"/>
</svg>
